<?xml version="1.0" encoding="UTF-8" standalone="no"?>
<svg
   viewBox="0 0 8 8"
   shape-rendering="crispEdges"
   version="1.1"
   id="svg44"
   sodipodi:docname="board_brown_numbered_smol.svg"
   inkscape:version="1.3.2 (091e20e, 2023-11-25)"
   inkscape:export-filename="board_brown_numbered_smol.svg"
   inkscape:export-xdpi="96"
   inkscape:export-ydpi="96"
   xmlns:inkscape="http://www.inkscape.org/namespaces/inkscape"
   xmlns:sodipodi="http://sodipodi.sourceforge.net/DTD/sodipodi-0.dtd"
   xmlns="http://www.w3.org/2000/svg"
   xmlns:svg="http://www.w3.org/2000/svg">
  <defs
     id="defs48" />
  <sodipodi:namedview
     id="namedview46"
     pagecolor="#ffffff"
     bordercolor="#000000"
     borderopacity="0.25"
     inkscape:showpageshadow="2"
     inkscape:pageopacity="0.0"
     inkscape:pagecheckerboard="0"
     inkscape:deskcolor="#d1d1d1"
     showgrid="false"
     inkscape:zoom="55.72073"
     inkscape:cx="5.0699264"
     inkscape:cy="2.4856099"
     inkscape:window-width="1920"
     inkscape:window-height="935"
     inkscape:window-x="0"
     inkscape:window-y="32"
     inkscape:window-maximized="1"
     inkscape:current-layer="svg44" />
  <g
     id="a">
    <g
       id="b">
      <g
         id="c">
        <g
           id="d">
          <path
             id="e"
             style="fill:#f0d9b5"
             d="M 0,0 H 1 V 1 H 0 Z" />
          <path
             id="use27"
             style="fill:#f0d9b5"
             d="M 1,1 H 2 V 2 H 1 Z" />
          <path
             id="f"
             style="fill:#b58863"
             d="M 0,1 H 1 V 2 H 0 Z" />
          <path
             id="use30"
             style="fill:#b58863"
             d="M 1,0 H 2 V 1 H 1 Z" />
        </g>
        <g
           id="use33"
           transform="translate(2)">
          <path
             id="path74"
             style="fill:#f0d9b5"
             d="M 0,0 H 1 V 1 H 0 Z" />
          <path
             id="path75"
             style="fill:#f0d9b5"
             d="M 1,1 H 2 V 2 H 1 Z" />
          <path
             id="path76"
             style="fill:#b58863"
             d="M 0,1 H 1 V 2 H 0 Z" />
          <path
             id="path77"
             style="fill:#b58863"
             d="M 1,0 H 2 V 1 H 1 Z" />
        </g>
      </g>
      <g
         id="use36"
         transform="translate(4)">
        <g
           id="g81">
          <path
             id="path78"
             style="fill:#f0d9b5"
             d="M 0,0 H 1 V 1 H 0 Z" />
          <path
             id="path79"
             style="fill:#f0d9b5"
             d="M 1,1 H 2 V 2 H 1 Z" />
          <path
             id="path80"
             style="fill:#b58863"
             d="M 0,1 H 1 V 2 H 0 Z" />
          <path
             id="path81"
             style="fill:#b58863"
             d="M 1,0 H 2 V 1 H 1 Z" />
        </g>
        <g
           id="g85"
           transform="translate(2)">
          <path
             id="path82"
             style="fill:#f0d9b5"
             d="M 0,0 H 1 V 1 H 0 Z" />
          <path
             id="path83"
             style="fill:#f0d9b5"
             d="M 1,1 H 2 V 2 H 1 Z" />
          <path
             id="path84"
             style="fill:#b58863"
             d="M 0,1 H 1 V 2 H 0 Z" />
          <path
             id="path85"
             style="fill:#b58863"
             d="M 1,0 H 2 V 1 H 1 Z" />
        </g>
      </g>
    </g>
    <g
       id="use39"
       transform="translate(0,2)">
      <g
         id="g94">
        <g
           id="g89">
          <path
             id="path86"
             style="fill:#f0d9b5"
             d="M 0,0 H 1 V 1 H 0 Z" />
          <path
             id="path87"
             style="fill:#f0d9b5"
             d="M 1,1 H 2 V 2 H 1 Z" />
          <path
             id="path88"
             style="fill:#b58863"
             d="M 0,1 H 1 V 2 H 0 Z" />
          <path
             id="path89"
             style="fill:#b58863"
             d="M 1,0 H 2 V 1 H 1 Z" />
        </g>
        <g
           id="g93"
           transform="translate(2)">
          <path
             id="path90"
             style="fill:#f0d9b5"
             d="M 0,0 H 1 V 1 H 0 Z" />
          <path
             id="path91"
             style="fill:#f0d9b5"
             d="M 1,1 H 2 V 2 H 1 Z" />
          <path
             id="path92"
             style="fill:#b58863"
             d="M 0,1 H 1 V 2 H 0 Z" />
          <path
             id="path93"
             style="fill:#b58863"
             d="M 1,0 H 2 V 1 H 1 Z" />
        </g>
      </g>
      <g
         id="g102"
         transform="translate(4)">
        <g
           id="g97">
          <path
             id="path94"
             style="fill:#f0d9b5"
             d="M 0,0 H 1 V 1 H 0 Z" />
          <path
             id="path95"
             style="fill:#f0d9b5"
             d="M 1,1 H 2 V 2 H 1 Z" />
          <path
             id="path96"
             style="fill:#b58863"
             d="M 0,1 H 1 V 2 H 0 Z" />
          <path
             id="path97"
             style="fill:#b58863"
             d="M 1,0 H 2 V 1 H 1 Z" />
        </g>
        <g
           id="g101"
           transform="translate(2)">
          <path
             id="path98"
             style="fill:#f0d9b5"
             d="M 0,0 H 1 V 1 H 0 Z" />
          <path
             id="path99"
             style="fill:#f0d9b5"
             d="M 1,1 H 2 V 2 H 1 Z" />
          <path
             id="path100"
             style="fill:#b58863"
             d="M 0,1 H 1 V 2 H 0 Z" />
          <path
             id="path101"
             style="fill:#b58863"
             d="M 1,0 H 2 V 1 H 1 Z" />
        </g>
      </g>
    </g>
  </g>
  <g
     id="use42"
     transform="translate(0,4)">
    <g
       id="g55">
      <g
         id="g54">
        <g
           id="g53">
          <path
             id="path52"
             style="fill:#f0d9b5"
             d="M 0,0 H 1 V 1 H 0 Z" />
          <path
             id="use52"
             style="fill:#f0d9b5"
             d="M 1,1 H 2 V 2 H 1 Z" />
          <path
             id="path53"
             style="fill:#b58863"
             d="M 0,1 H 1 V 2 H 0 Z" />
          <path
             id="use53"
             style="fill:#b58863"
             d="M 1,0 H 2 V 1 H 1 Z" />
        </g>
        <g
           id="use54"
           transform="translate(2)">
          <path
             id="path56"
             style="fill:#f0d9b5"
             d="M 0,0 H 1 V 1 H 0 Z" />
          <path
             id="use57"
             style="fill:#f0d9b5"
             d="M 1,1 H 2 V 2 H 1 Z" />
          <path
             id="path57"
             style="fill:#b58863"
             d="M 0,1 H 1 V 2 H 0 Z" />
          <path
             id="use58"
             style="fill:#b58863"
             d="M 1,0 H 2 V 1 H 1 Z" />
        </g>
      </g>
      <g
         id="use55"
         transform="translate(4)">
        <g
           id="g60">
          <path
             id="path58"
             style="fill:#f0d9b5"
             d="M 0,0 H 1 V 1 H 0 Z" />
          <path
             id="use59"
             style="fill:#f0d9b5"
             d="M 1,1 H 2 V 2 H 1 Z" />
          <path
             id="path59"
             style="fill:#b58863"
             d="M 0,1 H 1 V 2 H 0 Z" />
          <path
             id="use60"
             style="fill:#b58863"
             d="M 1,0 H 2 V 1 H 1 Z" />
        </g>
        <g
           id="use61"
           transform="translate(2)">
          <path
             id="path61"
             style="fill:#f0d9b5"
             d="M 0,0 H 1 V 1 H 0 Z" />
          <path
             id="use62"
             style="fill:#f0d9b5"
             d="M 1,1 H 2 V 2 H 1 Z" />
          <path
             id="path62"
             style="fill:#b58863"
             d="M 0,1 H 1 V 2 H 0 Z" />
          <path
             id="use63"
             style="fill:#b58863"
             d="M 1,0 H 2 V 1 H 1 Z" />
        </g>
      </g>
    </g>
    <g
       id="use56"
       transform="translate(0,2)">
      <g
         id="g66">
        <g
           id="g65">
          <path
             id="path63"
             style="fill:#f0d9b5"
             d="M 0,0 H 1 V 1 H 0 Z" />
          <path
             id="use64"
             style="fill:#f0d9b5"
             d="M 1,1 H 2 V 2 H 1 Z" />
          <path
             id="path64"
             style="fill:#b58863"
             d="M 0,1 H 1 V 2 H 0 Z" />
          <path
             id="use65"
             style="fill:#b58863"
             d="M 1,0 H 2 V 1 H 1 Z" />
        </g>
        <g
           id="use66"
           transform="translate(2)">
          <path
             id="path67"
             style="fill:#f0d9b5"
             d="M 0,0 H 1 V 1 H 0 Z" />
          <path
             id="use68"
             style="fill:#f0d9b5"
             d="M 1,1 H 2 V 2 H 1 Z" />
          <path
             id="path68"
             style="fill:#b58863"
             d="M 0,1 H 1 V 2 H 0 Z" />
          <path
             id="use69"
             style="fill:#b58863"
             d="M 1,0 H 2 V 1 H 1 Z" />
        </g>
      </g>
      <g
         id="use67"
         transform="translate(4)">
        <g
           id="g71">
          <path
             id="path69"
             style="fill:#f0d9b5"
             d="M 0,0 H 1 V 1 H 0 Z" />
          <path
             id="use70"
             style="fill:#f0d9b5"
             d="M 1,1 H 2 V 2 H 1 Z" />
          <path
             id="path70"
             style="fill:#b58863"
             d="M 0,1 H 1 V 2 H 0 Z" />
          <path
             id="use71"
             style="fill:#b58863"
             d="M 1,0 H 2 V 1 H 1 Z" />
        </g>
        <g
           id="use72"
           transform="translate(2)">
          <path
             id="path72"
             style="fill:#f0d9b5"
             d="M 0,0 H 1 V 1 H 0 Z" />
          <path
             id="use73"
             style="fill:#f0d9b5"
             d="M 1,1 H 2 V 2 H 1 Z" />
          <path
             id="path73"
             style="fill:#b58863"
             d="M 0,1 H 1 V 2 H 0 Z" />
          <path
             id="use74"
             style="fill:#b58863"
             d="M 1,0 H 2 V 1 H 1 Z" />
        </g>
      </g>
    </g>
  </g>
  <text
     xml:space="preserve"
     style="font-size:58.6667px;font-family:'Freestyle Script';-inkscape-font-specification:'Freestyle Script';fill:none;fill-opacity:0;stroke:#000000;stroke-width:40;stroke-linejoin:round"
     x="0.08984375"
     y="7.7734375"
     id="text346"><tspan
       sodipodi:role="line"
       id="tspan344" /></text>
  <path
     id="text1012"
     style="font-style:normal;font-variant:normal;font-weight:normal;font-stretch:normal;font-size:0.266667px;font-family:Consolas;-inkscape-font-specification:Consolas;fill:#f0d9b5;fill-opacity:1;stroke:#000000;stroke-width:0;stroke-linejoin:round;stroke-dasharray:none"
     d="m 0.13867187,7.7731156 c -0.001348,2.279e-4 -0.002674,0.00106 -0.004102,0.00137 -0.005651,0.00115 -0.0115756,0.0031 -0.0177734,0.00547 v 0.017773 c 0.005529,-0.00316 0.0119402,-0.00656 0.0177734,-0.0082 0.005833,-0.00164 0.0106946,-0.00137 0.0164063,-0.00137 0.008932,0 0.0164368,0.00176 0.0205078,0.00547 0.004071,0.00365 0.005408,0.00963 0.005469,0.017773 v 0.00137 h -0.021875 c -0.0147654,0 -0.0265237,0.00368 -0.0341797,0.00957 -0.007595,0.00589 -0.0109375,0.014614 -0.0109375,0.025977 0,0.00984 0.003372,0.017348 0.00957,0.023242 0.006198,0.00583 0.0142189,0.00957 0.0246094,0.00957 0.007778,0 0.0137328,-0.00261 0.0191406,-0.00547 0.005469,-0.00292 0.0100869,-0.00623 0.0136719,-0.012305 v 0.015039 h 0.0177734 v -0.058789 c 0,-0.00893 -0.001762,-0.016072 -0.002734,-0.020508 -9.7222e-4,-0.0045 -0.001793,-0.0079 -0.004102,-0.010937 -0.003706,-0.00498 -0.009023,-0.00845 -0.0150391,-0.010937 -0.005955,-0.00249 -0.0134289,-0.0041 -0.021875,-0.0041 -0.002674,0 -0.005438,-3.038e-4 -0.008203,0 -0.001382,1.519e-4 -0.002753,-2.278e-4 -0.004102,0 z m 0.0109375,0.05332 c 0.002146,-2.165e-4 0.00439,0 0.006836,0 h 0.005469 0.0150391 v 0.0041 c -6.076e-5,0.011302 -0.002917,0.019536 -0.008203,0.025977 -0.005286,0.00638 -0.012639,0.00957 -0.021875,0.00957 -0.006562,0 -0.0113326,-6.989e-4 -0.0150391,-0.0041 -0.003707,-0.0034 -0.005469,-0.0089 -0.005469,-0.015039 0,-0.00681 0.001914,-0.011636 0.006836,-0.015039 0.003737,-0.0026 0.009969,-0.00482 0.0164062,-0.00547 z" />
  <path
     d="m 1.1779103,7.8452019 q 0,-0.019505 -0.0062,-0.02944 -0.0062,-0.00993 -0.01832,-0.00993 -0.012213,0 -0.018503,0.010026 -0.00629,0.00993 -0.00629,0.029349 0,0.019323 0.00629,0.029349 0.00629,0.010026 0.018503,0.010026 0.012122,0 0.01832,-0.00994 0.0062,-0.00993 0.0062,-0.02944 z m -0.04931,-0.038099 q 0.00401,-0.00747 0.011029,-0.011484 0.00711,-0.00401 0.016406,-0.00401 0.018411,0 0.028984,0.014219 0.010573,0.014128 0.010573,0.03901 0,0.025247 -0.010664,0.039649 -0.010573,0.01431 -0.029076,0.01431 -0.00911,0 -0.016133,-0.00392 -0.00693,-0.00401 -0.01112,-0.011576 v 0.012852 H 1.1118295 V 7.7543293 h 0.016771 z"
     id="text1796"
     style="font-size:0.186667px;font-family:Consolas;-inkscape-font-specification:Consolas;fill:#b58863;stroke:#000000;stroke-width:0;stroke-linejoin:round"
     aria-label="b" />
  <path
     d="m 2.1903779,-7.8088538 q -0.00674,0.00392 -0.013945,0.00583 -0.00711,0.00201 -0.014583,0.00201 -0.023698,0 -0.037096,-0.014219 -0.013307,-0.014219 -0.013307,-0.039375 0,-0.025156 0.013307,-0.039375 0.013399,-0.014219 0.037096,-0.014219 0.00738,0 0.014401,0.00191 0.00702,0.00191 0.014128,0.00592 v 0.017591 q -0.00665,-0.00592 -0.013398,-0.00857 -0.00665,-0.00264 -0.01513,-0.00264 -0.015768,0 -0.024245,0.010208 -0.00848,0.010208 -0.00848,0.029167 0,0.018867 0.00848,0.029167 0.00857,0.010208 0.024245,0.010208 0.00875,0 0.015677,-0.00264 0.00693,-0.00273 0.012852,-0.00839 z"
     id="text1800"
     style="font-size:0.186667px;font-family:Consolas;-inkscape-font-specification:Consolas;fill:#f0d9b5;stroke:#000000;stroke-width:0;stroke-linejoin:round"
     transform="scale(1,-1)"
     aria-label="c" />
  <path
     d="m 3.1796682,7.8071029 v -0.052774 h 0.016771 v 0.1418232 h -0.016771 v -0.012852 q -0.00419,0.00757 -0.011211,0.011576 -0.00693,0.00392 -0.016042,0.00392 -0.018503,0 -0.029167,-0.01431 -0.010573,-0.014401 -0.010573,-0.039649 0,-0.024883 0.010664,-0.03901 0.010664,-0.014219 0.029076,-0.014219 0.00921,0 0.016224,0.00401 0.00702,0.00392 0.011029,0.011484 z m -0.04931,0.038099 q 0,0.019505 0.0062,0.02944 0.0062,0.00994 0.01832,0.00994 0.012123,0 0.018412,-0.010026 0.00638,-0.010026 0.00638,-0.029349 0,-0.019414 -0.00638,-0.029349 -0.00629,-0.010026 -0.018412,-0.010026 -0.012122,0 -0.01832,0.00993 -0.0062,0.00993 -0.0062,0.02944 z"
     id="text1804"
     style="font-size:0.186667px;font-family:Consolas;-inkscape-font-specification:Consolas;fill:#b58863;stroke:#000000;stroke-width:0;stroke-linejoin:round"
     aria-label="d" />
  <path
     d="m 4.2026241,7.8225393 v 0.0082 h -0.072643 v 5.469e-4 q 0,0.01668 0.00866,0.025794 0.00875,0.00911 0.024609,0.00911 0.00802,0 0.016771,-0.00255 0.00875,-0.00255 0.018685,-0.00775 v 0.01668 q -0.00957,0.00392 -0.018503,0.00583 -0.00884,0.00201 -0.017136,0.00201 -0.023789,0 -0.037188,-0.014219 -0.013398,-0.01431 -0.013398,-0.039375 0,-0.024427 0.013125,-0.03901 0.013125,-0.014583 0.035,-0.014583 0.019505,0 0.030716,0.013216 0.011302,0.013216 0.011302,0.036094 z m -0.016771,-0.00492 q -3.646e-4,-0.014766 -0.00702,-0.022422 -0.00656,-0.00775 -0.018958,-0.00775 -0.012122,0 -0.019961,0.00802 -0.00784,0.00802 -0.0093,0.02224 z"
     id="text1808"
     style="font-size:0.186667px;font-family:Consolas;-inkscape-font-specification:Consolas;fill:#f0d9b5;stroke:#000000;stroke-width:0;stroke-linejoin:round"
     aria-label="e" />
  <path
     d="m 5.2058336,7.7561065 v 0.013945 h -0.01905 q -0.00902,0 -0.012578,0.00374 -0.00346,0.00365 -0.00346,0.013034 v 0.00902 h 0.035091 V 7.80888 h -0.035091 v 0.08905 H 5.1539715 V 7.80888 h -0.027253 v -0.013034 h 0.027253 v -0.00711 q 0,-0.016771 0.00766,-0.024701 0.00775,-0.00793 0.024063,-0.00793 z"
     id="text1812"
     style="font-size:0.186667px;font-family:Consolas;-inkscape-font-specification:Consolas;fill:#b58863;stroke:#000000;stroke-width:0;stroke-linejoin:round"
     aria-label="f" />
  <path
     d="m 6.1825977,7.8339388 q 0,-0.018867 -0.0062,-0.02862 -0.00611,-0.00984 -0.017865,-0.00984 -0.012305,0 -0.018776,0.00984 -0.00647,0.00975 -0.00647,0.02862 0,0.018867 0.00647,0.028802 0.00656,0.00984 0.018958,0.00984 0.011576,0 0.017682,-0.00993 0.0062,-0.00993 0.0062,-0.028711 z m 0.016771,0.045299 q 0,0.022969 -0.010846,0.034818 -0.010846,0.011849 -0.031901,0.011849 -0.00693,0 -0.014492,-0.00128 -0.00757,-0.00128 -0.01513,-0.00374 v -0.016589 q 0.00893,0.00419 0.016224,0.0062 0.00729,0.00201 0.013399,0.00201 0.013581,0 0.019779,-0.00738 0.0062,-0.00738 0.0062,-0.023424 v -7.292e-4 -0.011393 q -0.00401,0.00857 -0.010937,0.01276 -0.00693,0.00419 -0.016862,0.00419 -0.017865,0 -0.028529,-0.01431 -0.010664,-0.01431 -0.010664,-0.038281 0,-0.024063 0.010664,-0.038373 0.010664,-0.01431 0.028529,-0.01431 0.00984,0 0.01668,0.00392 0.00684,0.00392 0.01112,0.012122 v -0.013216 h 0.016771 z"
     id="text1816"
     style="font-size:0.186667px;font-family:Consolas;-inkscape-font-specification:Consolas;fill:#f0d9b5;stroke:#000000;stroke-width:0;stroke-linejoin:round"
     aria-label="g" />
  <path
     d="m 7.1888802,7.7823305 v 0.063255 h -0.016862 v -0.063255 q 0,-0.013763 -0.00483,-0.020234 -0.00483,-0.00647 -0.01513,-0.00647 -0.011758,0 -0.018138,0.00839 -0.00629,0.00829 -0.00629,0.02388 v 0.057695 H 7.1108592 V 7.7037627 h 0.016771 v 0.055052 q 0.00447,-0.00875 0.012122,-0.013216 0.00766,-0.00456 0.018138,-0.00456 0.015586,0 0.023242,0.010299 0.00775,0.010208 0.00775,0.03099 z"
     id="text1820"
     style="font-size:0.186667px;font-family:Consolas;-inkscape-font-specification:Consolas;fill:#b58863;stroke:#000000;stroke-width:0;stroke-linejoin:round"
     aria-label="h" />
  <path
     style="font-size:0.186667px;font-family:Consolas;-inkscape-font-specification:Consolas;baseline-shift:baseline;fill:#b58863;stroke:#000000;stroke-width:0;stroke-linejoin:round"
     d="m 7.8742031,7.211309 h 0.02862 V 7.1073114 l -0.030807,0.00693 v -0.016771 l 0.030625,-0.00674 h 0.018412 V 7.211309 h 0.028255 v 0.015495 h -0.075104 z"
     id="text1820-8"
     aria-label="1&#10;" />
  <path
     style="font-size:0.186667px;font-family:Consolas;-inkscape-font-specification:Consolas;baseline-shift:baseline;fill:#b58863;stroke:#000000;stroke-width:0;stroke-linejoin:round"
     d="m 7.9181247,5.1545799 q 0.013399,0.00355 0.020508,0.012669 0.00711,0.00902 0.00711,0.022604 0,0.018776 -0.012669,0.029531 -0.012578,0.010664 -0.034909,0.010664 -0.00939,0 -0.019141,-0.00173 -0.00975,-0.00173 -0.019141,-0.00501 v -0.01832 q 0.0093,0.00483 0.01832,0.0072 0.00902,0.00237 0.017956,0.00237 0.01513,0 0.023242,-0.00684 0.00811,-0.00684 0.00811,-0.019687 0,-0.011849 -0.00811,-0.018776 -0.00811,-0.00702 -0.021966,-0.00702 h -0.014037 v -0.01513 h 0.014037 q 0.012669,0 0.019779,-0.00556 0.00711,-0.00556 0.00711,-0.015495 0,-0.010482 -0.00665,-0.016042 -0.00656,-0.00565 -0.018776,-0.00565 -0.00811,0 -0.016771,0.00182 -0.00866,0.00182 -0.018138,0.00547 V 5.094697 q 0.011029,-0.00292 0.019596,-0.00438 0.00866,-0.00146 0.015313,-0.00146 0.01987,0 0.031719,0.010026 0.01194,0.00993 0.01194,0.026432 0,0.011211 -0.00629,0.018685 -0.0062,0.00747 -0.018138,0.010573 z"
     id="text1820-8-2"
     aria-label="3&#10;" />
  <path
     d="m 7.8663623,3.0915077 h 0.068906 v 0.015495 h -0.052136 v 0.033451 q 0.00392,-0.00146 0.00784,-0.0021 0.00401,-7.291e-4 0.00802,-7.291e-4 0.021146,0 0.033542,0.012487 0.012396,0.012487 0.012396,0.033815 0,0.02151 -0.013034,0.033906 -0.012943,0.012396 -0.035456,0.012396 -0.010846,0 -0.01987,-0.00146 -0.00893,-0.00146 -0.016042,-0.00438 v -0.018685 q 0.00839,0.00456 0.016862,0.00684 0.00848,0.00219 0.017318,0.00219 0.015221,0 0.023424,-0.00802 0.00829,-0.00802 0.00829,-0.022786 0,-0.014583 -0.00857,-0.022695 -0.00848,-0.00811 -0.023698,-0.00811 -0.00738,0 -0.014401,0.00173 -0.00702,0.00164 -0.013399,0.00501 z"
     id="text1820-8-2-7"
     style="font-size:0.186667px;font-family:Consolas;-inkscape-font-specification:Consolas;baseline-shift:baseline;fill:#b58863;stroke:#000000;stroke-width:0;stroke-linejoin:round"
     aria-label="5&#10;" />
  <path
     style="font-size:0.186667px;font-family:Consolas;-inkscape-font-specification:Consolas;baseline-shift:baseline;fill:#b58863;stroke:#000000;stroke-width:0;stroke-linejoin:round"
     d="m 7.860224,1.0909414 h 0.085677 V 1.09878 L 7.8972293,1.2270224 H 7.8779974 L 7.9253934,1.1064363 H 7.860224 Z"
     id="text1820-8-2-5"
     aria-label="7&#10;" />
  <path
     style="font-size:0.186667px;font-family:Consolas;-inkscape-font-specification:Consolas;baseline-shift:baseline;fill:#f0d9b5;stroke:#000000;stroke-width:0;stroke-linejoin:round"
     d="m 7.8815092,6.2113442 h 0.062526 v 0.015495 H 7.861366 v -0.015495 q 0.017044,-0.017956 0.029805,-0.031719 0.01276,-0.013763 0.017591,-0.019414 0.00911,-0.01112 0.012305,-0.017956 0.00319,-0.00693 0.00319,-0.014128 0,-0.011393 -0.00674,-0.017865 -0.00665,-0.00647 -0.01832,-0.00647 -0.00829,0 -0.017409,0.00301 -0.00911,0.00301 -0.019323,0.00911 v -0.018594 q 0.00939,-0.00447 0.018412,-0.00674 0.00911,-0.00228 0.017956,-0.00228 0.019961,0 0.032083,0.010664 0.012213,0.010573 0.012213,0.0278 0,0.00875 -0.0041,0.0175 -0.00401,0.00875 -0.013125,0.019323 -0.0051,0.00592 -0.014857,0.016406 -0.00966,0.010482 -0.029531,0.031354 z"
     id="text1820-8-2-2"
     aria-label="2&#10;" />
  <text
     xml:space="preserve"
     style="font-style:normal;font-variant:normal;font-weight:normal;font-stretch:normal;font-size:0.4px;line-height:normal;font-family:Consolas;-inkscape-font-specification:Consolas;font-variant-ligatures:normal;font-variant-position:normal;font-variant-caps:normal;font-variant-numeric:normal;font-variant-alternates:normal;font-variant-east-asian:normal;font-feature-settings:normal;font-variation-settings:normal;text-indent:0;text-align:start;text-decoration-line:none;text-decoration-style:solid;text-decoration-color:#000000;letter-spacing:normal;word-spacing:normal;text-transform:none;writing-mode:lr-tb;direction:ltr;text-orientation:mixed;dominant-baseline:auto;baseline-shift:baseline;white-space:normal;vector-effect:none;fill:#f0d9b5;fill-opacity:1;stroke:#000000;stroke-width:0;stroke-linecap:butt;stroke-linejoin:round;stroke-miterlimit:4;stroke-dasharray:none;stroke-dashoffset:0;stroke-opacity:1;-inkscape-stroke:none;stop-color:#000000"
     x="7.7236328"
     y="6.3564453"
     id="text3339"><tspan
       sodipodi:role="line"
       id="tspan3335"
       x="7.7236328"
       y="6.3564453" /><tspan
       sodipodi:role="line"
       x="7.7236328"
       y="6.8564453"
       id="tspan3337" /></text>
  <text
     xml:space="preserve"
     style="font-style:normal;font-variant:normal;font-weight:normal;font-stretch:normal;font-size:0.4px;line-height:normal;font-family:Consolas;-inkscape-font-specification:Consolas;font-variant-ligatures:normal;font-variant-position:normal;font-variant-caps:normal;font-variant-numeric:normal;font-variant-alternates:normal;font-variant-east-asian:normal;font-feature-settings:normal;font-variation-settings:normal;text-indent:0;text-align:start;text-decoration-line:none;text-decoration-style:solid;text-decoration-color:#000000;letter-spacing:normal;word-spacing:normal;text-transform:none;writing-mode:lr-tb;direction:ltr;text-orientation:mixed;dominant-baseline:auto;baseline-shift:baseline;white-space:normal;vector-effect:none;fill:#f0d9b5;fill-opacity:1;stroke:#000000;stroke-width:0;stroke-linecap:butt;stroke-linejoin:round;stroke-miterlimit:4;stroke-dasharray:none;stroke-dashoffset:0;stroke-opacity:1;-inkscape-stroke:none;stop-color:#000000"
     x="7.7236328"
     y="6.3564453"
     id="text3345"><tspan
       sodipodi:role="line"
       id="tspan3341"
       x="7.7236328"
       y="6.3564453" /><tspan
       sodipodi:role="line"
       x="7.7236328"
       y="6.8564453"
       id="tspan3343" /></text>
  <text
     xml:space="preserve"
     style="font-style:normal;font-variant:normal;font-weight:normal;font-stretch:normal;font-size:0.4px;line-height:normal;font-family:Consolas;-inkscape-font-specification:Consolas;font-variant-ligatures:normal;font-variant-position:normal;font-variant-caps:normal;font-variant-numeric:normal;font-variant-alternates:normal;font-variant-east-asian:normal;font-feature-settings:normal;font-variation-settings:normal;text-indent:0;text-align:start;text-decoration-line:none;text-decoration-style:solid;text-decoration-color:#000000;letter-spacing:normal;word-spacing:normal;text-transform:none;writing-mode:lr-tb;direction:ltr;text-orientation:mixed;dominant-baseline:auto;baseline-shift:baseline;white-space:normal;vector-effect:none;fill:#f0d9b5;fill-opacity:1;stroke:#000000;stroke-width:0;stroke-linecap:butt;stroke-linejoin:round;stroke-miterlimit:4;stroke-dasharray:none;stroke-dashoffset:0;stroke-opacity:1;-inkscape-stroke:none;stop-color:#000000"
     x="7.7236328"
     y="6.3564453"
     id="text3351"><tspan
       sodipodi:role="line"
       id="tspan3347"
       x="7.7236328"
       y="6.3564453" /><tspan
       sodipodi:role="line"
       x="7.7236328"
       y="6.8564453"
       id="tspan3349" /></text>
  <path
     style="font-size:0.186667px;font-family:Consolas;-inkscape-font-specification:Consolas;baseline-shift:baseline;fill:#f0d9b5;stroke:#000000;stroke-width:0;stroke-linejoin:round"
     d="m 7.9325538,4.1067126 -0.04293,0.071914 h 0.04293 z m -0.00301,-0.016771 h 0.021328 v 0.088685 h 0.018138 v 0.014948 h -0.018138 v 0.032448 h -0.01832 v -0.032448 h -0.057695 v -0.017409 z"
     id="text3351-3"
     aria-label="4&#10;" />
  <path
     style="font-size:0.186667px;font-family:Consolas;-inkscape-font-specification:Consolas;baseline-shift:baseline;fill:#f0d9b5;stroke:#000000;stroke-width:0;stroke-linejoin:round"
     d="m 7.9403923,2.0929882 v 0.016953 q -0.00574,-0.00337 -0.012213,-0.0051 -0.00647,-0.00182 -0.01349,-0.00182 -0.0175,0 -0.026523,0.013216 -0.00902,0.013125 -0.00902,0.038737 0.00437,-0.00911 0.012122,-0.013945 0.00775,-0.00492 0.017773,-0.00492 0.019688,0 0.030443,0.012122 0.010846,0.012031 0.010846,0.03418 0,0.022057 -0.01112,0.03418 -0.01112,0.012122 -0.031263,0.012122 -0.023698,0 -0.034727,-0.016953 -0.011029,-0.017044 -0.011029,-0.053594 0,-0.034453 0.013216,-0.0525 0.013307,-0.018138 0.038464,-0.018138 0.00674,0 0.01349,0.00146 0.00674,0.00137 0.013034,0.00401 z m -0.032813,0.057513 q -0.011758,0 -0.018503,0.00848 -0.00674,0.00848 -0.00674,0.023424 0,0.014948 0.00674,0.023424 0.00674,0.00848 0.018503,0.00848 0.012214,0 0.018412,-0.00802 0.0062,-0.00811 0.0062,-0.02388 0,-0.015859 -0.0062,-0.02388 -0.0062,-0.00802 -0.018412,-0.00802 z"
     id="text3351-5"
     aria-label="6&#10;" />
  <path
     style="font-size:0.186667px;font-family:Consolas;-inkscape-font-specification:Consolas;baseline-shift:baseline;fill:#f0d9b5;stroke:#000000;stroke-width:0;stroke-linejoin:round"
     d="m 7.9067333,0.16478263 q -0.012305,0 -0.01905,0.006927 -0.00665,0.006836 -0.00665,0.0194141 0,0.0125781 0.00674,0.0195964 0.00684,0.006927 0.018958,0.006927 0.012396,0 0.01905,-0.006836 0.00674,-0.006927 0.00674,-0.0196875 0,-0.012487 -0.00684,-0.0194141 -0.00674,-0.006927 -0.018958,-0.006927 z m -0.016042,-0.007656 q -0.011758,-0.003008 -0.018412,-0.011211 -0.00656,-0.008203 -0.00656,-0.0197787 0,-0.016224 0.011029,-0.0257032 0.011029,-0.0095703 0.029987,-0.0095703 0.01905,0 0.030078,0.0095703 0.011029,0.009479 0.011029,0.0257032 0,0.0115755 -0.00665,0.0197787 -0.00656,0.008203 -0.01832,0.011211 0.013672,0.003008 0.020872,0.0121224 0.00729,0.009115 0.00729,0.0236068 0,0.0184115 -0.011758,0.0288021 -0.011758,0.0103906 -0.032539,0.0103906 -0.020781,0 -0.032539,-0.0102995 -0.011667,-0.0103906 -0.011667,-0.028711 0,-0.0145834 0.0072,-0.0236979 0.00729,-0.009206 0.020964,-0.0122136 z m -0.00665,-0.0292579 q 0,0.0109375 0.00583,0.0166797 0.00583,0.005742 0.016862,0.005742 0.01112,0 0.016953,-0.005742 0.00583,-0.005742 0.00583,-0.0166797 0,-0.0111198 -0.00583,-0.0169532 -0.00574,-0.005833 -0.016953,-0.005833 -0.011029,0 -0.016862,0.005924 -0.00583,0.005833 -0.00583,0.016862 z"
     id="text3351-0"
     aria-label="8&#10;" />
  <text
     xml:space="preserve"
     style="font-style:normal;font-variant:normal;font-weight:normal;font-stretch:normal;font-size:0.266667px;line-height:normal;font-family:Consolas;-inkscape-font-specification:Consolas;font-variant-ligatures:normal;font-variant-position:normal;font-variant-caps:normal;font-variant-numeric:normal;font-variant-alternates:normal;font-variant-east-asian:normal;font-feature-settings:normal;font-variation-settings:normal;text-indent:0;text-align:start;text-decoration-line:none;text-decoration-style:solid;text-decoration-color:#000000;letter-spacing:normal;word-spacing:normal;text-transform:none;writing-mode:lr-tb;direction:ltr;text-orientation:mixed;dominant-baseline:auto;baseline-shift:baseline;white-space:normal;opacity:1;vector-effect:none;fill:#f0d9b5;fill-opacity:1;stroke:#000000;stroke-width:0;stroke-linecap:butt;stroke-linejoin:round;stroke-miterlimit:4;stroke-dasharray:none;stroke-dashoffset:0;stroke-opacity:1;-inkscape-stroke:none;stop-color:#000000;stop-opacity:1"
     x="9.137145"
     y="0.87283492"
     id="text5115"><tspan
       sodipodi:role="line"
       id="tspan5113"
       x="9.137145"
       y="0.87283492" /></text>
</svg>
